{"title":"The Drunken Master.avi.La.Vela","uid":4978645,"size":733819064,"categoryP":"video","categoryS":"movies","magnet":"?xt=urn:btih:07fa510b8a38d9f0846840142ff43327ac6f3780&amp;dn=The+Drunken+Master.avi.La.Vela&amp;tr=udp%3A%2F%2Ftracker.openbittorrent.com%3A80&amp;tr=udp%3A%2F%2Fopen.demonii.com%3A1337&amp;tr=udp%3A%2F%2Ftracker.coppersurfer.tk%3A6969&amp;tr=udp%3A%2F%2Fexodus.desync.com%3A6969","seeders":1,"leechers":0,"uploader":"headdock","files":5,"time":1246143566,"description":"General\n\nComplete name                    : The Drunken Master.avi.La.Vela\nImdb                             : http://www.imdb.com/title/tt0080179/\nLanguage                         : Chinese\nSubtitles                        : Dutch/English\nFormat                           : AVI\nFormat/Info                      : Audio Video Interleave\nFile size                        : 700 MiB\nDuration                         : 1h 46mn\nOverall bit rate                 : 922 Kbps\nWriting application              : VirtualDubMod 1.5.10.1 (build 2439/release)\nWriting library                  : VirtualDubMod build 2439/release\n\nVideo\nFormat                           : MPEG-4 Visual\nFormat profile                   : Simple@L3\nFormat settings, BVOP            : No\nFormat settings, QPel            : No\nFormat settings, GMC             : No warppoints\nFormat settings, Matrix          : Default\nCodec ID                         : XVID\nCodec ID/Hint                    : XviD\nDuration                         : 1h 46mn\nBit rate                         : 807 Kbps\nWidth                            : 608 pixels\nHeight                           : 256 pixels\nDisplay aspect ratio             : 2.35\nFrame rate                       : 23.976 fps\nResolution                       : 24 bits\nColorimetry                      : 4:2:0\nScan type                        : Progressive\nBits/(Pixel*Frame)               : 0.216\nStream size                      : 612 MiB (87%)\nWriting library                  : XviD 1.0.0 (UTC 2004-05-09)\n\nAudio\nFormat                           : MPEG Audio\nFormat version                   : Version 1\nFormat profile                   : Layer 3\nCodec ID                         : 55\nCodec ID/Hint                    : MP3\nDuration                         : 1h 46mn\nBit rate mode                    : Variable\nBit rate                         : 103 Kbps\nChannel(s)                       : 2 channels\nSampling rate                    : 48.0 KHz\nResolution                       : 16 bits\nStream size                      : 78.2 MiB (11%)\nAlignment                        : Aligned on interleaves\nInterleave, duration             : 24 ms (0.58 video frame)\nInterleave, preload duration     : 417 ms\nWriting library                  : LAME3.93 \nEncoding settings                : VBR (mtrh)\n\n","torrent":{"xt":"urn:btih:07fa510b8a38d9f0846840142ff43327ac6f3780","amp;dn":"The+Drunken+Master.avi.La.Vela","amp;tr":["udp%3A%2F%2Ftracker.openbittorrent.com%3A80","udp%3A%2F%2Fopen.demonii.com%3A1337","udp%3A%2F%2Ftracker.coppersurfer.tk%3A6969","udp%3A%2F%2Fexodus.desync.com%3A6969"],"infoHash":"07fa510b8a38d9f0846840142ff43327ac6f3780","infoHashBuffer":{"type":"Buffer","data":[7,250,81,11,138,56,217,240,132,104,64,20,47,244,51,39,172,111,55,128]},"announce":[],"urlList":[]}}